<svg width="70" height="44" viewBox="0 0 70 44" fill="none" xmlns="http://www.w3.org/2000/svg">
<rect width="70" height="44" rx="22" fill="#3456F3"/>
<path d="M17.8416 26H19.1584V22.1946H23.5092V26H24.8303V17.2727H23.5092V21.0653H19.1584V17.2727H17.8416V26ZM28.5504 26.1449C29.6328 26.1449 30.2422 25.5952 30.4851 25.1051H30.5362V26H31.7805V21.6534C31.7805 19.7486 30.2805 19.3693 29.2408 19.3693C28.0561 19.3693 26.9652 19.8466 26.5391 21.0398L27.7365 21.3125C27.924 20.848 28.4013 20.4006 29.2578 20.4006C30.0803 20.4006 30.5021 20.831 30.5021 21.5724V21.6023C30.5021 22.0668 30.0249 22.0582 28.8487 22.1946C27.6087 22.3395 26.3388 22.6634 26.3388 24.1506C26.3388 25.4375 27.3061 26.1449 28.5504 26.1449ZM28.8274 25.1222C28.1072 25.1222 27.5874 24.7983 27.5874 24.1676C27.5874 23.4858 28.1925 23.2429 28.9297 23.1449C29.343 23.0895 30.3232 22.9787 30.5064 22.7955V23.6392C30.5064 24.4148 29.8885 25.1222 28.8274 25.1222ZM34.7262 24.2145V19.4545H33.4776V26H34.8626L37.7347 21.2358V26H38.9833V19.4545H37.6112L34.7262 24.2145ZM37.0657 17.2386C37.0657 17.669 36.8271 18.0483 36.2305 18.0483C35.6254 18.0483 35.3995 17.6648 35.3995 17.2386H34.3555C34.3555 18.1974 35.0842 18.858 36.2305 18.858C37.3853 18.858 38.114 18.1974 38.114 17.2386H37.0657ZM39.8846 20.554H42.0281V26H43.2724V20.554H45.4073V19.4545H39.8846V20.554ZM48.0036 24.2145V19.4545H46.755V26H48.1399L51.0121 21.2358V26H52.2607V19.4545H50.8885L48.0036 24.2145Z" fill="white"/>
</svg>
