<svg width="80" height="34" viewBox="0 0 80 34" fill="none" xmlns="http://www.w3.org/2000/svg">
<rect x="21.3496" width="58.65" height="34" rx="17" fill="#3456F3"/>
<path d="M34.9467 21H36.1537V17.5117H40.142V21H41.3529V13H40.142V16.4766H36.1537V13H34.9467V21ZM44.7631 21.1328C45.7553 21.1328 46.3139 20.6289 46.5365 20.1797H46.5834V21H47.724V17.0156C47.724 15.2695 46.349 14.9219 45.3959 14.9219C44.31 14.9219 43.31 15.3594 42.9193 16.4531L44.017 16.7031C44.1889 16.2773 44.6264 15.8672 45.4115 15.8672C46.1654 15.8672 46.5521 16.2617 46.5521 16.9414V16.9687C46.5521 17.3945 46.1146 17.3867 45.0365 17.5117C43.8998 17.6445 42.7357 17.9414 42.7357 19.3047C42.7357 20.4844 43.6225 21.1328 44.7631 21.1328ZM45.017 20.1953C44.3568 20.1953 43.8803 19.8984 43.8803 19.3203C43.8803 18.6953 44.435 18.4727 45.1107 18.3828C45.4896 18.332 46.3881 18.2305 46.5561 18.0625V18.8359C46.5561 19.5469 45.9896 20.1953 45.017 20.1953ZM50.4242 19.3633V15H49.2797V21H50.5492L53.182 16.6328V21H54.3266V15H53.0687L50.4242 19.3633ZM52.5687 12.9687C52.5687 13.3633 52.35 13.7109 51.8031 13.7109C51.2484 13.7109 51.0414 13.3594 51.0414 12.9687H50.0844C50.0844 13.8477 50.7523 14.4531 51.8031 14.4531C52.8617 14.4531 53.5297 13.8477 53.5297 12.9687H52.5687ZM55.1527 16.0078H57.1176V21H58.2582V16.0078H60.2152V15H55.1527V16.0078ZM62.5951 19.3633V15H61.4506V21H62.7201L65.3529 16.6328V21H66.4975V15H65.2396L62.5951 19.3633Z" fill="white"/>
</svg>
